D:\school\WTK\thesis\model\3dpredictsim\Results\batch_windlass\Pog_s1_tmt_aCst_d00_k500_WL10_ig24_pas_GRF.mot
nRows=25
nColumns=19

name D:\school\WTK\thesis\model\3dpredictsim\Results\batch_windlass\Pog_s1_tmt_aCst_d00_k500_WL10_ig24_pas_GRF.mot
datacolumns 19
datarows 25
range 0.0000000000 0.2574868375
endheader
time 	ground_force_vx	ground_force_vy	ground_force_vz	ground_force_px	ground_force_py	ground_force_pz	1_ground_force_vx	1_ground_force_vy	1_ground_force_vz	1_ground_force_px	1_ground_force_py	1_ground_force_pz	ground_torque_x	ground_torque_y	ground_torque_z	1_ground_torque_x	1_ground_torque_y	1_ground_torque_z
        0.0000000000	      -84.8876518178	       73.7310341734	       33.8277529901	        0.1373402471	        0.0000000000	        0.0394222504	       94.6741620749	      460.7152858321	       -4.3795059263	       -0.3320478302	        0.0000000000	       -0.0342823514	        0.0000000000	        0.0000000000	        0.0000000000	        0.0000000000	        0.0000000000	        0.0000000000	
        0.0107286182	     -118.1811758466	      144.3798051405	       78.2217372551	        0.1465001780	        0.0000000000	        0.0381470969	       71.4869192555	      373.4616643709	      -10.9771518312	       -0.3271337050	        0.0000000000	       -0.0325228257	        0.0000000000	        0.0000000000	        0.0000000000	        0.0000000000	        0.0000000000	        0.0000000000	
        0.0214572365	      -55.0819482023	      315.1294374137	       35.2527429937	        0.1586792798	        0.0000000000	        0.0383522035	       43.4290089978	      272.2340823355	      -13.3241158615	       -0.3187438443	        0.0000000000	       -0.0288408799	        0.0000000000	        0.0000000000	        0.0000000000	        0.0000000000	        0.0000000000	        0.0000000000	
        0.0321858547	      -57.1270097986	      525.3559570797	        1.5065785599	        0.1678539081	        0.0000000000	        0.0399598518	       17.9475131054	      179.8266120154	      -11.6228826287	       -0.3047159932	        0.0000000000	       -0.0215629796	        0.0000000000	        0.0000000000	        0.0000000000	        0.0000000000	        0.0000000000	        0.0000000000	
        0.0429144729	      -88.4798497218	      729.6079314398	       -9.9951501697	        0.1765389638	        0.0000000000	        0.0404950357	        2.8543769847	      142.7421329177	      -10.9544985424	       -0.3003397118	        0.0000000000	       -0.0188288008	        0.0000000000	        0.0000000000	        0.0000000000	        0.0000000000	        0.0000000000	        0.0000000000	
        0.0536430911	     -113.2162238807	      876.8245447333	      -13.1973118465	        0.1865070205	        0.0000000000	        0.0400347839	       -0.5924835809	      106.5581756432	      -10.3021888483	       -0.2999332110	        0.0000000000	       -0.0188614646	        0.0000000000	        0.0000000000	        0.0000000000	        0.0000000000	        0.0000000000	        0.0000000000	
        0.0643717094	     -122.8443875465	      916.4261735654	      -12.0003434354	        0.1937870846	        0.0000000000	        0.0394072577	       -9.7355245376	       63.5357106086	       -9.2448885010	       -0.3001759479	        0.0000000000	       -0.0189906400	        0.0000000000	        0.0000000000	        0.0000000000	        0.0000000000	        0.0000000000	        0.0000000000	
        0.0751003276	     -114.0688475023	      886.9299253736	       -9.0005267617	        0.1977923075	        0.0000000000	        0.0389131669	       -7.7697572259	       16.6815609096	       -3.1846590930	       -0.3004549025	        0.0000000000	       -0.0188250238	        0.0000000000	        0.0000000000	        0.0000000000	        0.0000000000	        0.0000000000	        0.0000000000	
        0.0858289458	      -99.2845113531	      837.6168589456	       -8.5125118287	        0.2010910546	        0.0000000000	        0.0385247769	        0.0674485550	       -0.0684571833	        0.0061113850	        0.0000000000	        0.0000000000	        0.0000000000	        0.0000000000	        0.0000000000	        0.0000000000	        0.0000000000	        0.0000000000	        0.0000000000	
        0.0965575641	      -85.8486529055	      790.2150501789	      -10.5442519970	        0.2043393532	        0.0000000000	        0.0382276248	        0.0001608846	       -0.0001359668	       -0.0000004832	        0.0000000000	        0.0000000000	        0.0000000000	        0.0000000000	        0.0000000000	        0.0000000000	        0.0000000000	        0.0000000000	        0.0000000000	
        0.1072861823	      -73.7121373851	      750.3806872138	      -12.2617593463	        0.2075792566	        0.0000000000	        0.0380456627	        0.0000198534	       -0.0000142798	       -0.0000008083	        0.0000000000	        0.0000000000	        0.0000000000	        0.0000000000	        0.0000000000	        0.0000000000	        0.0000000000	        0.0000000000	        0.0000000000	
        0.1180148005	      -61.5151105112	      715.7635987441	      -13.5059358529	        0.2111853246	        0.0000000000	        0.0379606035	        0.0000893032	       -0.0000563598	       -0.0000055875	        0.0000000000	        0.0000000000	        0.0000000000	        0.0000000000	        0.0000000000	        0.0000000000	        0.0000000000	        0.0000000000	        0.0000000000	
        0.1287434188	      -50.7155835907	      685.0195629472	      -15.2167686019	        0.2157897881	        0.0000000000	        0.0379228598	        0.0027631468	       -0.0015774888	       -0.0002089320	        0.0000000000	        0.0000000000	        0.0000000000	        0.0000000000	        0.0000000000	        0.0000000000	        0.0000000000	        0.0000000000	        0.0000000000	
        0.1394720370	      -42.9386192958	      658.5680166297	      -16.6463186170	        0.2212254183	        0.0000000000	        0.0379005396	       -0.0216786075	        0.0114800772	        0.0018239421	        0.0000000000	        0.0000000000	        0.0000000000	        0.0000000000	        0.0000000000	        0.0000000000	        0.0000000000	        0.0000000000	        0.0000000000	
        0.1502006552	      -37.4169645888	      636.9619573340	      -17.8203892858	        0.2269763723	        0.0000000000	        0.0378787129	       -0.0183365554	        0.0091692231	        0.0016559167	        0.0000000000	        0.0000000000	        0.0000000000	        0.0000000000	        0.0000000000	        0.0000000000	        0.0000000000	        0.0000000000	        0.0000000000	
        0.1609292734	      -32.9259983769	      620.2241564163	      -18.7131480093	        0.2330024346	        0.0000000000	        0.0378546641	       -0.0127260790	        0.0060757350	        0.0012087256	        0.0000000000	        0.0000000000	        0.0000000000	        0.0000000000	        0.0000000000	        0.0000000000	        0.0000000000	        0.0000000000	        0.0000000000	
        0.1716578917	      -29.5339540274	      607.5062496059	      -19.2588603625	        0.2390547300	        0.0000000000	        0.0378249089	       -0.0109135924	        0.0050072165	        0.0010773167	        0.0000000000	        0.0000000000	        0.0000000000	        0.0000000000	        0.0000000000	        0.0000000000	        0.0000000000	        0.0000000000	        0.0000000000	
        0.1823865099	      -26.7467338642	      597.7875010671	      -19.1442873533	        0.2449097633	        0.0000000000	        0.0377986394	       -0.0122483022	        0.0054236241	        0.0012388110	        0.0000000000	        0.0000000000	        0.0000000000	        0.0000000000	        0.0000000000	        0.0000000000	        0.0000000000	        0.0000000000	        0.0000000000	
        0.1931151281	      -24.1954609008	      590.6742943034	      -18.5757561531	        0.2506670015	        0.0000000000	        0.0377656579	       -0.0175422388	        0.0075225476	        0.0017928970	        0.0000000000	        0.0000000000	        0.0000000000	        0.0000000000	        0.0000000000	        0.0000000000	        0.0000000000	        0.0000000000	        0.0000000000	
        0.2038437464	      -22.7680064977	      585.7487564913	      -18.0364137231	        0.2562421948	        0.0000000000	        0.0377174646	       -0.0301485582	        0.0125623503	        0.0030825872	        0.0000000000	        0.0000000000	        0.0000000000	        0.0000000000	        0.0000000000	        0.0000000000	        0.0000000000	        0.0000000000	        0.0000000000	
        0.2145723646	      -21.6064601074	      581.6566049794	      -17.5899934645	        0.2615093892	        0.0000000000	        0.0376650587	       -0.0577579429	        0.0234675255	        0.0058905681	        0.0000000000	        0.0000000000	        0.0000000000	        0.0000000000	        0.0000000000	        0.0000000000	        0.0000000000	        0.0000000000	        0.0000000000	
        0.2253009828	      -20.0343263494	      577.2685243278	      -17.3174209203	        0.2665378673	        0.0000000000	        0.0376076159	       -0.1146442153	        0.0455787421	        0.0116401157	        0.0000000000	        0.0000000000	        0.0000000000	        0.0000000000	        0.0000000000	        0.0000000000	        0.0000000000	        0.0000000000	        0.0000000000	
        0.2360296010	      -17.9627873774	      572.0385688596	      -16.9826717826	        0.2713583484	        0.0000000000	        0.0375469910	       -0.2214710862	        0.0864462867	        0.0223533793	        0.0000000000	        0.0000000000	        0.0000000000	        0.0000000000	        0.0000000000	        0.0000000000	        0.0000000000	        0.0000000000	        0.0000000000	
        0.2467582193	      -15.5541510070	      566.3999682315	      -16.7158154918	        0.2760876658	        0.0000000000	        0.0374731433	       -0.3960573277	        0.1522805785	        0.0396547727	        0.0000000000	        0.0000000000	        0.0000000000	        0.0000000000	        0.0000000000	        0.0000000000	        0.0000000000	        0.0000000000	        0.0000000000	
        0.2574868375	      -12.9257257965	      560.3408660440	      -16.4648372102	        0.2807364034	        0.0000000000	        0.0373833783	       -0.6327135090	        0.2404200855	        0.0626207381	        0.0000000000	        0.0000000000	        0.0000000000	        0.0000000000	        0.0000000000	        0.0000000000	        0.0000000000	        0.0000000000	        0.0000000000	
